# xmcd
#
# Track frame offsets:
#	150
#	4769
#	14174
#	30443
#	37623
#	53808
#	73548
#	98809
#	106826
#	126260
#	151110
#	168594
#	193205
#	209136
#
# Disc length: 3153 seconds
#
# Revision: 0
# Processed by: cddbd v1.5.2PL0 Copyright (c) Steve Scherf et al.
# Submitted via: dBpowerAMP V4.0
#
DISCID=b70c4f0e
DTITLE=Ô Cirque - Le vent était de la triche...
DYEAR=2006
DGENRE=Blues
TTITLE0=Coffre à jouets
TTITLE1=Gille's blues
TTITLE2=Nouvelles du monde
TTITLE3=Rubberclown
TTITLE4=Il était le temp
TTITLE5=Mon amour du moment
TTITLE6=Ma plus belle histoire d'amour
TTITLE7=Petit cheval
TTITLE8=Mon manège à moi
TTITLE9=Les poètes de sept ans
TTITLE10=Quatres arabes
TTITLE11=Nouvelles du monde (final)
TTITLE12=Nouvelles du monde (rappel)
TTITLE13=DATA
EXTD=
EXTT0=
EXTT1=
EXTT2=
EXTT3=
EXTT4=
EXTT5=
EXTT6=
EXTT7=
EXTT8=
EXTT9=
EXTT10=
EXTT11=
EXTT12=
EXTT13=
PLAYORDER=
